<?xml version="1.0" encoding="UTF-8"?>
<svg xmlns="http://www.w3.org/2000/svg" xmlns:xlink="http://www.w3.org/1999/xlink" width="2400" height="2400" viewBox="0 0 2400 2400">

<path fill-rule="nonzero" fill="rgb(142, 133, 230)" fill-opacity="1" d="M 1914.050781 1596.863281 C 1890.511719 1634.640625 1853.191406 1664.742188 1808.488281 1688.167969 C 1781.890625 1700.378906 1666.488281 1743.511719 1698.878906 1760.769531 C 1711.960938 1767.738281 1742.058594 1785.828125 1763.378906 1806.558594 C 1996.761719 2033.4375 1056.371094 1758.71875 1486.511719 1599.511719 C 1516.429688 1588.441406 1531.378906 1584.390625 1560.378906 1568.511719 C 1581.261719 1557.074219 1602.851562 1546.585938 1624.148438 1535.917969 C 1638.769531 1528.570312 1653.179688 1521.132812 1667.589844 1513.394531 C 1725.011719 1482.316406 1680.878906 1474.511719 1644.640625 1459.417969 C 1611.058594 1444.996094 1601.730469 1440.402344 1565.320312 1432.328125 C 1498.289062 1417.464844 1460.46875 1400.96875 1434.019531 1331.660156 C 1404.699219 1254.800781 1460.421875 1217.691406 1510.910156 1171.179688 C 1528.730469 1154.511719 1581.730469 1116.261719 1577.070312 1090.53125 C 1575.441406 1081.488281 1568.539062 1075.578125 1561.511719 1070.558594 C 1551.21875 1063.910156 1523.921875 1082.859375 1512.769531 1088.910156 C 1446.738281 1125.609375 1369.738281 1205 1299.648438 1215.269531 L 1287.011719 1217.128906 C 1275.300781 1218.058594 1266.300781 1217.449219 1254.691406 1216.179688 C 1236.421875 1213.738281 1222.589844 1208.609375 1205.980469 1200.929688 L 1200.070312 1197.859375 C 1071.378906 1122.710938 1158.308594 867.75 1173.808594 751.949219 C 1174.628906 745.828125 1175.339844 739.769531 1176.03125 733.640625 C 1179.910156 695.121094 1181.921875 615.738281 1120.871094 659.148438 C 1056.210938 705.128906 1035.941406 854.511719 1004.609375 929.460938 C 976.554688 996.570312 931.898438 1068.941406 848.140625 1051.699219 C 824.605469 1045.988281 803.214844 1033.789062 783.199219 1020.511719 C 723.90625 979.679688 682.164062 919.878906 638.988281 863.390625 C 643.980469 963.660156 657.710938 1079.71875 526.039062 1093.421875 C 466.289062 1099.640625 401.585938 1073.601562 372.4375 1018.699219 C 360.949219 997.058594 336.589844 940.421875 378.9375 936.410156 C 405.808594 933.871094 425.371094 945.019531 424.386719 907.828125 C 423.121094 860.019531 429.96875 812.128906 438.25 765.171875 C 450.222656 698.828125 490.21875 584.210938 540.273438 539.011719 C 628.589844 470.71875 691.675781 581.871094 741.296875 640.300781 C 748.636719 648.960938 793.648438 704.539062 805.628906 692.171875 C 820.730469 676.578125 833.496094 567.511719 839.074219 540.898438 C 869.28125 412.851562 921.03125 318.320312 1067.421875 337.191406 C 1150.78125 348.511719 1218.328125 374.871094 1305.03125 378.800781 C 1443.710938 385.308594 1527.511719 405.371094 1500.078125 567.878906 C 1478.128906 697.890625 1378.960938 782.539062 1342.929688 901.429688 C 1320.78125 974.53125 1385.558594 915.699219 1408.519531 899.078125 C 1534.46875 807.960938 1648.660156 773.199219 1804.351562 786.949219 C 1891.640625 796.960938 1943.300781 871.230469 1927.53125 956.5 C 1884.570312 1188.878906 1846.511719 1068.609375 1751.96875 1196.839844 C 1707.21875 1257.539062 1729.988281 1310.851562 1793.789062 1342.789062 C 1861.878906 1374.898438 1926.019531 1377.570312 1947.808594 1460.746094 C 1952.589844 1480.699219 1951.878906 1497.007812 1948.699219 1517.074219 C 1942.511719 1546.089844 1929.339844 1571.726562 1914.050781 1596.863281 "/>
<path fill-rule="evenodd" fill="rgb(142, 133, 230)" fill-opacity="1" d="M 735.3125 571.289062 C 754.0625 583.988281 785.140625 589.800781 796.3125 557.289062 C 803.84375 532.929688 804.878906 483.851562 796.46875 459.121094 C 786.9375 431.078125 764.566406 392.859375 752.09375 440.550781 C 742.539062 477.078125 749.371094 473.621094 731.128906 507.609375 C 716.074219 535.660156 710.984375 552.878906 735.3125 571.289062 "/>
<path fill-rule="evenodd" fill="rgb(142, 133, 230)" fill-opacity="1" d="M 1523.691406 636.078125 C 1509.089844 637.351562 1502.601562 665.78125 1497.03125 677.320312 C 1484.800781 702.710938 1414.011719 822.460938 1499.960938 789.011719 C 1510.101562 785.058594 1559.691406 764.820312 1562.621094 754.890625 C 1565.210938 746.121094 1542.140625 725.351562 1542.929688 694.921875 C 1543.421875 675.570312 1541.628906 647.601562 1523.691406 636.078125 "/>
<path fill-rule="evenodd" fill="rgb(142, 133, 230)" fill-opacity="1" d="M 2012.011719 1554.132812 C 1979.921875 1568.378906 2005.460938 1515.667969 2006.710938 1500.984375 C 2010.671875 1454.25 1980.25 1429.25 1999.109375 1387.148438 C 2007.789062 1367.769531 2012.941406 1376.660156 2014.691406 1391.828125 C 2018.890625 1428.160156 2038.859375 1447.074219 2044.050781 1485.667969 C 2048.039062 1515.335938 2040.109375 1540.101562 2012.011719 1554.132812 "/>
<path fill-rule="evenodd" fill="rgb(142, 133, 230)" fill-opacity="1" d="M 1868.25 766.988281 C 1874.980469 755.03125 1873.789062 734.839844 1845.351562 726.769531 C 1824.191406 721.28125 1784.25 719.449219 1765.820312 724.371094 C 1744.929688 729.941406 1718.210938 743.671875 1759.199219 752.949219 C 1790.578125 760.050781 1786.488281 755.511719 1817.46875 768.230469 C 1843.03125 778.730469 1857.949219 782.46875 1868.25 766.988281 "/>
<path fill-rule="evenodd" fill="rgb(100%, 36.863708%, 38.818359%)" fill-opacity="1" d="M 829.101562 979.878906 C 822.046875 980.289062 788.339844 988.941406 788.339844 988.941406 C 761.019531 992.050781 734.875 995.789062 707.929688 988.949219 C 702.148438 987.480469 696.429688 986.058594 691.398438 985.160156 C 682.761719 983.609375 669.300781 989.25 674.449219 1001.390625 C 685.183594 1026.710938 742.832031 1039.890625 767.378906 1049.609375 C 774.949219 1052.609375 782.222656 1056.28125 789.640625 1059.609375 C 801.050781 1064.738281 815.648438 1072.589844 827.9375 1074.050781 C 846.628906 1076.261719 846.957031 1064.519531 852.980469 1031.449219 C 853.898438 1026.398438 855.554688 1021.808594 860.035156 1017.488281 L 851.183594 1006.03125 L 845.664062 995.210938 L 829.101562 979.878906 "/>
<path fill-rule="evenodd" fill="rgb(98.826599%, 89.0625%, 76.951599%)" fill-opacity="1" d="M 1706.839844 589.878906 L 1703.71875 566.890625 L 1697.890625 552.359375 L 1690.460938 537.328125 L 1688.589844 529.519531 L 1687.988281 519.640625 L 1693.460938 515.378906 L 1697.789062 513.761719 L 1696.128906 505.601562 L 1700.800781 497.988281 L 1712.570312 496.648438 L 1722.179688 494.941406 L 1728.671875 496.78125 C 1728.671875 496.78125 1737.78125 504.03125 1739.398438 505.269531 C 1741.019531 506.5 1753.351562 515.488281 1753.351562 515.488281 L 1756.019531 519.28125 L 1755.53125 537.53125 L 1748.03125 589.988281 L 1747.25 594.769531 C 1731.359375 605.378906 1722.460938 600.949219 1706.839844 589.878906 "/>
<path fill-rule="evenodd" fill="rgb(98.826599%, 89.0625%, 76.951599%)" fill-opacity="1" d="M 1696.960938 509.679688 L 1696.128906 505.601562 L 1681.621094 464.558594 C 1675.109375 440.351562 1692.289062 445.339844 1697.898438 463.488281 L 1705.46875 487.960938 L 1710.960938 501.800781 L 1712.570312 496.648438 L 1710.21875 459.558594 C 1708.871094 438.320312 1725.078125 429.199219 1726.488281 465.859375 L 1727 479.308594 L 1728.269531 503.191406 L 1728.039062 511.128906 L 1721.578125 519.941406 L 1705.128906 522.550781 L 1696.960938 509.679688 "/>
<path fill-rule="evenodd" fill="rgb(24.705505%, 10.984802%, 18.821716%)" fill-opacity="1" d="M 1182.96875 779.328125 C 1184.261719 777.550781 1232.988281 773.019531 1221.230469 757.351562 C 1189.03125 714.421875 1271.480469 676.320312 1282.878906 679 C 1285.46875 679.609375 1294.828125 683.089844 1296.78125 682.140625 C 1298.839844 681.140625 1296.738281 677.128906 1296.121094 675.648438 C 1294.828125 672.640625 1289.699219 663.101562 1294.660156 662.050781 C 1303.160156 660.859375 1316.96875 672.320312 1312.199219 659.191406 C 1311.078125 656.078125 1307.960938 650.128906 1310.320312 647.28125 C 1313.628906 643.289062 1320.660156 647.171875 1313.96875 634.371094 C 1311.351562 629.371094 1307.070312 622.238281 1311.148438 617.21875 C 1311.621094 616.640625 1312.148438 616.058594 1312.648438 615.5 C 1322.121094 605.230469 1331 600.621094 1337.699219 587.121094 C 1351.859375 557.691406 1359.25 515.300781 1389.601562 501.011719 C 1424.179688 484.710938 1452.960938 484.371094 1489.839844 524.929688 C 1502.640625 539.878906 1511.230469 557.410156 1513.871094 576.648438 C 1516.199219 593.679688 1505.71875 599.128906 1513 616.660156 C 1518 628.75 1519.441406 631.050781 1516.070312 643.449219 C 1513.058594 655.359375 1514.550781 658.898438 1522.460938 668.230469 C 1527.070312 673.671875 1530.601562 672.949219 1533.289062 675.621094 C 1538.929688 681.210938 1523.289062 693.519531 1528.761719 696.339844 C 1533.191406 698.148438 1540.191406 695.851562 1542.960938 700.550781 C 1546.308594 706.210938 1535.878906 712.640625 1543.25 715.578125 C 1549.691406 718.140625 1554.328125 717.480469 1554.828125 726.019531 C 1555.199219 732.261719 1554.070312 736.96875 1550.828125 742.160156 C 1540.609375 744.371094 1584.980469 766.351562 1600.558594 803.429688 C 1608.371094 822.03125 1585.03125 848.578125 1591.960938 869.980469 C 1598.519531 890.238281 1585.890625 900.101562 1578.371094 896.511719 C 1576.191406 895.46875 1559.390625 896.789062 1550.191406 891.351562 C 1530.789062 879.859375 1512.550781 858.390625 1507.289062 862.421875 C 1445.421875 909.949219 1362.730469 861.859375 1288.75 831.46875 C 1274.960938 825.800781 1259.859375 799.648438 1249.230469 801.921875 C 1200.570312 812.328125 1187.820312 810.269531 1182.96875 779.328125 "/>
<path fill-rule="evenodd" fill="rgb(94.921875%, 74.414062%, 59.959412%)" fill-opacity="1" d="M 1456.660156 730.699219 L 1424.339844 748.789062 L 1407.460938 767.660156 L 1402.660156 762.300781 L 1376.371094 720.449219 L 1386.308594 676.75 L 1391 651.601562 C 1391 651.601562 1410.289062 645.058594 1413.941406 645.820312 C 1417.589844 646.578125 1449.820312 653.320312 1449.820312 653.320312 L 1459.449219 655.949219 C 1460.589844 662.058594 1451.769531 729.910156 1456.660156 730.699219 "/>
<path fill-rule="evenodd" fill="rgb(98.826599%, 89.0625%, 76.951599%)" fill-opacity="1" d="M 1477.03125 640.601562 C 1475.171875 647.378906 1473.941406 652.53125 1472.421875 657.070312 C 1469.910156 664.570312 1466.621094 670.410156 1458.460938 679.25 C 1449.628906 688.828125 1438.648438 696.460938 1427.25 696.988281 C 1395.519531 698.460938 1368.839844 655.28125 1364.441406 627.5 C 1360.890625 605.101562 1363.878906 581.859375 1370.738281 559.839844 C 1387.890625 504.738281 1469.140625 518.769531 1486.371094 567.308594 C 1493.140625 586.351562 1486.929688 607.210938 1480.449219 628.929688 C 1479.289062 632.800781 1478.128906 636.691406 1477.03125 640.601562 "/>
<path fill-rule="evenodd" fill="rgb(24.705505%, 10.984802%, 18.821716%)" fill-opacity="1" d="M 1407.03125 525.851562 C 1407.03125 525.851562 1486.851562 592.070312 1493.308594 592.828125 C 1499.761719 593.589844 1498.601562 578.558594 1498.601562 578.558594 L 1493.53125 554.421875 L 1469.800781 531.121094 L 1446.519531 519.738281 L 1420.710938 516.710938 L 1407.03125 525.851562 "/>
<path fill-rule="evenodd" fill="rgb(24.705505%, 10.984802%, 18.821716%)" fill-opacity="1" d="M 1407.03125 525.851562 C 1407.03125 525.851562 1367.421875 568.910156 1364.359375 563.828125 C 1361.289062 558.75 1366.589844 551.871094 1366.589844 551.871094 L 1374.730469 531.089844 L 1392.730469 523.320312 L 1407.03125 525.851562 "/>
<path fill-rule="evenodd" fill="rgb(98.826599%, 89.0625%, 76.951599%)" fill-opacity="1" d="M 1481.5 625.398438 C 1498.878906 619.5 1492.191406 636.269531 1485.359375 645.019531 C 1481.019531 650.558594 1477.648438 652.820312 1470.699219 651.171875 C 1470.699219 651.171875 1471.570312 644.839844 1472 644.039062 C 1472.421875 643.238281 1481.5 625.398438 1481.5 625.398438 "/>
<path fill-rule="evenodd" fill="rgb(98.826599%, 89.0625%, 76.951599%)" fill-opacity="1" d="M 1363.019531 612.710938 C 1348.621094 600.160156 1349.628906 618.539062 1353.289062 629.480469 C 1355.609375 636.410156 1363.148438 639.769531 1370.171875 641.039062 C 1370.171875 641.039062 1368.601562 633.171875 1368.449219 632.25 C 1368.300781 631.328125 1363.019531 612.710938 1363.019531 612.710938 "/>
<path fill-rule="evenodd" fill="rgb(100%, 43.920898%, 48.631287%)" fill-opacity="1" d="M 1053.71875 806.539062 C 1054.5 786.789062 1082.238281 765.96875 1114.878906 748.289062 C 1151.628906 728.390625 1194.589844 712.46875 1212.25 706.570312 C 1390.289062 647.109375 1412.640625 739.730469 1313.699219 775.269531 C 1309.878906 776.640625 1298.378906 776.710938 1285.511719 777.058594 C 1230.230469 778.570312 1180.910156 802.160156 1127.679688 811.871094 C 1086.78125 819.328125 1053.28125 817.710938 1053.71875 806.539062 "/>
<path fill-rule="evenodd" fill="rgb(100%, 43.920898%, 48.631287%)" fill-opacity="1" d="M 1138.941406 804.28125 C 1135.5 791.058594 1107.898438 791.921875 1103.351562 785.46875 C 1062.191406 727.039062 980.976562 924.101562 956.789062 973.199219 L 1001.871094 1002.25 L 1080.140625 885.609375 L 1138.941406 804.28125 "/>
<path fill-rule="evenodd" fill="rgb(9.397888%, 20.776367%, 36.863708%)" fill-opacity="1" d="M 1387.488281 1961.53125 C 1393.601562 1964.574219 1420.25 1985.078125 1420.25 1985.078125 C 1443.328125 1998.222656 1465.128906 2011.492188 1491.660156 2015.660156 C 1497.351562 2016.554688 1502.980469 2017.460938 1507.789062 2018.574219 C 1516.050781 2020.484375 1525.859375 2030.609375 1516.671875 2039.4375 C 1497.511719 2057.84375 1441.300781 2047.632812 1415.800781 2046.933594 C 1407.929688 2046.71875 1400.078125 2047.207031 1392.230469 2047.347656 C 1380.140625 2047.5625 1364.191406 2048.988281 1352.71875 2045.609375 C 1335.28125 2040.46875 1339.449219 2029.914062 1346.679688 1998.25 C 1347.78125 1993.414062 1348.058594 1988.710938 1345.71875 1983.171875 L 1357.941406 1976.359375 L 1366.949219 1968.84375 L 1387.488281 1961.53125 "/>
<path fill-rule="evenodd" fill="rgb(53.318787%, 53.318787%, 100%)" fill-opacity="1" d="M 1423.140625 1036.660156 L 1432.851562 1076.148438 C 1420.210938 1135.519531 1387.929688 1100.328125 1346.648438 1059.238281 C 1312.140625 1024.898438 1259.28125 965.710938 1223.351562 931.351562 C 1158.488281 869.328125 1282.398438 775.289062 1307.53125 860.261719 C 1312.539062 877.210938 1383.390625 1002.929688 1423.140625 1036.660156 "/>
<path fill-rule="evenodd" fill="rgb(18.041992%, 32.151794%, 51.756287%)" fill-opacity="1" d="M 1402.96875 1057.28125 C 1368.890625 1178.929688 1499.828125 1046.269531 1529.960938 1016 L 1515 965.601562 C 1459.941406 996.941406 1438.851562 1014.558594 1398.011719 1033.871094 L 1402.96875 1057.28125 "/>
<path fill-rule="evenodd" fill="rgb(100%, 54.881287%, 0%)" fill-opacity="1" d="M 1345.199219 1250.398438 C 1083.410156 1218.101562 1203.949219 1435.886719 1293.339844 1625.941406 C 1305.359375 1655.660156 1313.949219 1705.808594 1355.480469 1692.351562 C 1411.878906 1674.070312 1386.898438 1599.40625 1379.121094 1534.960938 L 1373.699219 1492.96875 L 1345.199219 1250.398438 "/>
<path fill-rule="evenodd" fill="rgb(100%, 54.881287%, 0%)" fill-opacity="1" d="M 1390.738281 1644.828125 C 1396.339844 1715.128906 1396.660156 1783.148438 1399.898438 1851.753906 C 1401.058594 1876.371094 1402.601562 1901.0625 1404.898438 1925.964844 L 1407.839844 1963.066406 C 1380.339844 1996.707031 1356.441406 2006.304688 1339.019531 1984.511719 C 1327.589844 1918.871094 1309.351562 1690.617188 1293.339844 1625.941406 L 1327.691406 1641.054688 C 1327.691406 1641.054688 1343.871094 1664.308594 1353.941406 1658.371094 C 1364.011719 1652.4375 1366.660156 1647.144531 1368.800781 1644.636719 C 1370.941406 1642.132812 1390.738281 1644.828125 1390.738281 1644.828125 "/>
<path fill-rule="evenodd" fill="rgb(18.041992%, 32.151794%, 51.756287%)" fill-opacity="1" d="M 1075.46875 976.160156 L 1025.390625 1120.109375 L 991.367188 1155.109375 C 922.472656 1182.980469 938.324219 1130.429688 952.425781 1065.519531 C 964.28125 1010.941406 980.867188 941.621094 1000.78125 890.988281 C 1045.660156 776.871094 1135.289062 830.328125 1075.46875 976.160156 "/>
<path fill-rule="evenodd" fill="rgb(100%, 54.881287%, 0%)" fill-opacity="1" d="M 1248.390625 1274.050781 C 1032.390625 1122.648438 1036.601562 1371.53125 1026.308594 1581.308594 C 1022.96875 1613.1875 1007.011719 1661.496094 1050 1669.109375 C 1108.390625 1679.445312 1121.378906 1601.792969 1144.761719 1541.234375 L 1159.691406 1501.613281 L 1248.390625 1274.050781 "/>
<path fill-rule="evenodd" fill="rgb(18.041992%, 32.151794%, 51.756287%)" fill-opacity="1" d="M 1174.019531 821.738281 C 1137.640625 818.941406 1077.78125 820.238281 1053.449219 829.929688 C 1041.109375 834.851562 1059.800781 843.070312 1050.570312 851.679688 C 1030.960938 869.988281 1018.390625 897.011719 1012.941406 934.300781 C 1050.210938 1096.691406 1073.078125 1105.878906 1061.238281 1260.078125 C 1125.421875 1340.421875 1250.980469 1325.621094 1355.398438 1262.679688 C 1330.710938 1047.058594 1391.011719 759.730469 1174.019531 821.738281 "/>
<path fill-rule="evenodd" fill="rgb(9.397888%, 20.776367%, 36.863708%)" fill-opacity="1" d="M 992.792969 1956.117188 C 984.765625 1978.355469 978.039062 1997 975.894531 2020.691406 C 975.335938 2026.855469 974.847656 2033.179688 974.847656 2036.367188 C 974.847656 2039.523438 977.257812 2044.511719 980.015625 2049.191406 C 989.726562 2065.652344 1008.5 2067.277344 1026.890625 2063.539062 C 1057.640625 2057.296875 1074.648438 2047.824219 1055.101562 2015.246094 C 1053.519531 2012.605469 1048.769531 2009.4375 1046.128906 2007.855469 C 1043.238281 2006.125 1033.238281 1970.234375 1031.320312 1963.296875 L 1030.808594 1949.246094 L 1015.5 1946.078125 L 992.792969 1956.117188 "/>
<path fill-rule="evenodd" fill="rgb(100%, 54.881287%, 0%)" fill-opacity="1" d="M 1121.46875 1607.019531 C 1110.761719 1676.730469 1080.859375 1774.214844 1068.25 1841.730469 C 1063.71875 1865.953125 1058 1908.867188 1054.511719 1933.632812 L 1048.851562 1970.414062 C 1014.351562 1996.835938 988.886719 2000.683594 976.9375 1975.46875 C 980.90625 1908.960938 1023.980469 1669.238281 1023.269531 1602.617188 L 1046.398438 1620.074219 C 1046.398438 1620.074219 1056.808594 1646.421875 1067.96875 1642.960938 C 1079.140625 1639.5 1082.929688 1634.957031 1085.589844 1633.011719 C 1088.25 1631.0625 1121.46875 1607.019531 1121.46875 1607.019531 "/>
<path fill-rule="evenodd" fill="rgb(94.921875%, 74.414062%, 59.959412%)" fill-opacity="1" d="M 1152.910156 743.988281 L 1213.308594 779.589844 L 1214.460938 813.808594 L 1179.660156 839.878906 L 1131.289062 835.28125 L 1115.5 775.089844 L 1152.910156 743.988281 "/>
<path fill-rule="evenodd" fill="rgb(94.921875%, 74.414062%, 59.959412%)" fill-opacity="1" d="M 1214.460938 813.808594 L 1167.601562 800.578125 L 1135.269531 826.769531 L 1131.21875 834.988281 C 1167.960938 855.609375 1208.160156 849.589844 1214.460938 813.808594 "/>
<path fill-rule="evenodd" fill="rgb(24.705505%, 10.984802%, 18.821716%)" fill-opacity="1" d="M 1216.21875 653.988281 C 1231.019531 672.820312 1236.109375 750.941406 1224.589844 726.578125 L 1212.410156 700.828125 L 1205.578125 670.359375 L 1201.441406 651.710938 L 1216.21875 653.988281 "/>
<path fill-rule="evenodd" fill="rgb(98.826599%, 89.0625%, 76.951599%)" fill-opacity="1" d="M 1095.929688 747.828125 C 1102.730469 764.089844 1109.429688 782.980469 1120.640625 796.238281 C 1140.738281 820.019531 1171.769531 829.421875 1202.210938 806.570312 C 1203.121094 805.878906 1204 805.171875 1204.828125 804.441406 C 1223.929688 787.609375 1225.96875 758.960938 1224.070312 740.238281 C 1223.929688 738.789062 1224.050781 737.359375 1224.070312 735.980469 C 1223.609375 706.839844 1222.320312 685.859375 1208.609375 666.660156 C 1184.609375 633.058594 1112.679688 623.738281 1093.71875 674.648438 C 1083.878906 701.078125 1091.039062 721.519531 1095.929688 747.828125 "/>
<path fill-rule="evenodd" fill="rgb(24.705505%, 10.984802%, 18.821716%)" fill-opacity="1" d="M 1092.191406 729.238281 C 1089.949219 718.070312 1088.238281 707.53125 1088.980469 696.441406 L 1082.628906 702.878906 L 1084.109375 721.488281 C 1086.171875 722.609375 1088.511719 724.648438 1091.070312 727.839844 C 1091.441406 728.289062 1091.808594 728.761719 1092.191406 729.238281 "/>
<path fill-rule="evenodd" fill="rgb(24.705505%, 10.984802%, 18.821716%)" fill-opacity="1" d="M 1091.171875 696.679688 C 1106.628906 657.199219 1165.039062 665.808594 1200.410156 664.578125 C 1243.660156 684.601562 1253.941406 600.238281 1208.621094 585.261719 C 1199.648438 582.289062 1167.730469 623.421875 1168.429688 609.410156 C 1169.238281 593.140625 1151.160156 584.351562 1105.578125 628.101562 C 1075.101562 654.421875 1075 694.640625 1084.109375 721.488281 L 1091.171875 696.679688 "/>
<path fill-rule="evenodd" fill="rgb(24.705505%, 10.984802%, 18.821716%)" fill-opacity="1" d="M 1092.191406 679.160156 C 1091.601562 678.980469 1113.460938 713.160156 1092.191406 729.238281 L 1090.109375 724.46875 L 1085.808594 699.660156 L 1092.191406 679.160156 "/>
<path fill-rule="evenodd" fill="rgb(98.826599%, 89.0625%, 76.951599%)" fill-opacity="1" d="M 1098.601562 755.160156 L 1109.578125 756.171875 L 1104.398438 745.539062 C 1103.070312 743.769531 1096.441406 734.511719 1091.070312 727.839844 C 1070.679688 702.511719 1064.761719 749.570312 1098.601562 755.160156 "/>
<path fill-rule="evenodd" fill="rgb(98.826599%, 89.0625%, 76.951599%)" fill-opacity="1" d="M 1220.570312 737.921875 L 1221.679688 719.28125 C 1224.671875 705.261719 1234.398438 701.410156 1234.910156 717 C 1235.671875 739.699219 1231.691406 737.5 1222.128906 749.488281 L 1220.570312 737.921875 "/>
<path fill-rule="evenodd" fill="rgb(24.705505%, 10.984802%, 18.821716%)" fill-opacity="1" d="M 1086.988281 659.210938 C 1119.460938 674.210938 1190.46875 706.589844 1221.558594 666.839844 L 1223.941406 654.808594 L 1189.46875 623.53125 L 1157.769531 632.148438 C 1157.769531 632.148438 1129.339844 640.550781 1126.25 641.421875 C 1123.171875 642.289062 1086.988281 659.210938 1086.988281 659.210938 "/>
<path fill-rule="evenodd" fill="rgb(24.705505%, 10.984802%, 18.821716%)" fill-opacity="1" d="M 1138.039062 648.308594 C 1130.320312 670.230469 1113.28125 717.851562 1087.339844 699.949219 L 1082.269531 692.121094 L 1085.199219 657.820312 L 1100.71875 653.148438 C 1100.71875 653.148438 1114.859375 649.429688 1116.378906 649 C 1117.910156 648.570312 1138.039062 648.308594 1138.039062 648.308594 "/>
<path fill-rule="evenodd" fill="rgb(100%, 36.863708%, 38.818359%)" fill-opacity="1" d="M 860.800781 1082.25 C 854.035156 1084.289062 823.277344 1100.570312 823.277344 1100.570312 C 797.441406 1109.96875 772.894531 1119.71875 745.09375 1119.359375 C 739.132812 1119.28125 733.234375 1119.230469 728.132812 1119.53125 C 719.375 1120.039062 707.601562 1128.660156 715.445312 1139.269531 C 731.792969 1161.378906 790.925781 1160.738281 817.0625 1164.460938 C 825.128906 1165.609375 833.054688 1167.480469 841.046875 1168.988281 C 853.335938 1171.308594 869.363281 1175.539062 881.652344 1174.078125 C 900.347656 1171.871094 897.925781 1160.378906 896.058594 1126.808594 C 895.773438 1121.691406 896.308594 1116.839844 899.660156 1111.589844 L 888.375 1102.519531 L 880.484375 1093.28125 L 860.800781 1082.25 "/>
<path fill-rule="evenodd" fill="rgb(100%, 43.920898%, 48.631287%)" fill-opacity="1" d="M 1771.671875 804.960938 C 1764.140625 823.230469 1730.921875 833.230469 1694.191406 838.589844 C 1652.828125 844.609375 1607.03125 844.761719 1588.410156 844.21875 C 1400.789062 838.71875 1411.699219 744.070312 1516.828125 744.78125 C 1520.890625 744.808594 1531.710938 748.699219 1543.910156 752.808594 C 1596.328125 770.429688 1650.761719 765.269531 1704.070312 774.480469 C 1745.050781 781.570312 1775.929688 794.628906 1771.671875 804.960938 "/>
<path fill-rule="evenodd" fill="rgb(100%, 43.920898%, 48.631287%)" fill-opacity="1" d="M 1715.371094 799.519531 C 1820.328125 888.191406 1763.019531 638.589844 1753.5 578.558594 L 1699.921875 580.828125 L 1703.269531 721.269531 L 1704.339844 792.300781 L 1715.371094 799.519531 "/>
<path fill-rule="evenodd" fill="rgb(23.925781%, 2.348328%, 10.205078%)" fill-opacity="1" d="M 1419.550781 1120.640625 C 1390.019531 1143.480469 1312.179688 1160.550781 1259.460938 1125.820312 C 1220.589844 1100.210938 1174.800781 1045.230469 1150.039062 1017.300781 C 1127.671875 996.371094 1041.03125 925.628906 1057.308594 883.570312 C 1084.671875 812.910156 1198.511719 917.929688 1252.371094 953.488281 L 1286.78125 971.261719 C 1312.628906 984.75 1492.75 1064.050781 1419.550781 1120.640625 "/>
<path fill-rule="evenodd" fill="rgb(23.925781%, 2.348328%, 10.205078%)" fill-opacity="1" d="M 1078.730469 861.328125 C 1023.609375 884.601562 962.917969 909.75 909.996094 934.128906 C 891.007812 942.871094 871.816406 951.371094 852.171875 959.371094 L 811.859375 976.410156 C 797.28125 1010.261719 847.21875 1015.339844 870.4375 1019.941406 C 986.480469 986.839844 1014.738281 1013.949219 1074.648438 950 L 1094.480469 940.738281 C 1094.480469 940.738281 1073.03125 903.03125 1073.558594 893.128906 C 1074.089844 883.21875 1077.039062 879.160156 1078.089844 876.570312 C 1079.140625 873.980469 1078.730469 861.328125 1078.730469 861.328125 "/>
<path fill-rule="evenodd" fill="rgb(29.026794%, 2.748108%, 12.547302%)" fill-opacity="1" d="M 1471.960938 1117.871094 C 1467.5 1159.550781 1372.621094 1250.308594 1272.449219 1176.691406 C 1232.660156 1152.53125 1190.070312 1082.359375 1165.308594 1054.441406 C 1142.941406 1033.5 1056.300781 962.769531 1072.589844 920.710938 C 1099.949219 850.050781 1213.78125 955.058594 1267.640625 990.628906 L 1302.058594 1008.390625 C 1327.898438 1021.890625 1494.898438 1028.230469 1471.960938 1117.871094 "/>
<path fill-rule="evenodd" fill="rgb(29.026794%, 2.748108%, 12.547302%)" fill-opacity="1" d="M 1076.488281 912.691406 C 1028.160156 947.960938 974.835938 986.328125 928.898438 1022.171875 C 912.417969 1035.039062 895.679688 1047.699219 878.386719 1059.988281 L 843.046875 1085.800781 C 836.605469 1122.089844 886.378906 1115.609375 910.03125 1114.769531 C 1015.421875 1055.988281 1049.128906 1075.898438 1092.820312 999.941406 L 1110 986.390625 C 1110 986.390625 1080.480469 954.589844 1078.730469 944.828125 C 1076.988281 935.058594 1078.929688 930.429688 1079.359375 927.671875 C 1079.78125 924.910156 1076.488281 912.691406 1076.488281 912.691406 "/>
<path fill-rule="evenodd" fill="rgb(100%, 43.920898%, 48.631287%)" fill-opacity="1" d="M 1331.691406 705.160156 C 1331.429688 706.25 1233.75 808.609375 1267.410156 847.78125 C 1285.21875 883.800781 1301.53125 930.121094 1269.570312 962.371094 C 1330.960938 1000.988281 1370.539062 1167.320312 1489.121094 1111.070312 C 1479.460938 1023.398438 1496.539062 1014.550781 1524.699219 887.941406 C 1555.300781 750.359375 1558.171875 755.671875 1459.308594 725.320312 L 1369.488281 698.808594 L 1346.609375 692.058594 L 1331.691406 705.160156 "/>
<path fill-rule="evenodd" fill="rgb(98.826599%, 89.0625%, 76.951599%)" fill-opacity="1" d="M 1526.660156 1004.859375 C 1541.539062 993.949219 1564.800781 983.429688 1571.558594 967.03125 C 1575.441406 957.621094 1569.699219 952.648438 1556.621094 936.238281 C 1553.421875 931.011719 1551.949219 926.160156 1550.660156 922.75 C 1548.890625 918.109375 1547.449219 916.160156 1542.359375 919.640625 L 1533.910156 916.441406 L 1517.609375 921.390625 L 1496.058594 928.671875 L 1491.109375 933.621094 L 1489.070312 937.109375 C 1480.539062 939.011719 1476.808594 938.980469 1481.210938 946.570312 C 1474.699219 953.550781 1481.308594 955.53125 1487.320312 957.929688 C 1483.648438 963.070312 1489.550781 966.660156 1496.628906 969.320312 C 1501.800781 971.269531 1507.601562 972.730469 1510.761719 973.949219 L 1518.609375 977.738281 L 1526.660156 1004.859375 "/>
<path fill-rule="evenodd" fill="rgb(94.921875%, 74.414062%, 59.959412%)" fill-opacity="1" d="M 1455.199219 724.109375 C 1443.25 727.628906 1405.808594 749.339844 1380.550781 702.070312 L 1380.601562 701.828125 C 1394.671875 702.320312 1407.949219 699.539062 1430.640625 700.558594 C 1437.730469 701.160156 1447.558594 723.378906 1455.199219 724.109375 "/>
<path fill-rule="evenodd" fill="rgb(98.826599%, 89.0625%, 76.951599%)" fill-opacity="1" d="M 1172.828125 1030.671875 L 1183.21875 1020.660156 L 1189.601562 1014.519531 C 1197.371094 1004.46875 1200.320312 1003.941406 1211.199219 997.441406 C 1216.730469 993.378906 1222.601562 989.589844 1227.691406 985.011719 C 1239.148438 974.671875 1238.730469 984.628906 1234.039062 993.71875 C 1241.71875 989.960938 1246.878906 985.71875 1252.539062 984.878906 C 1272.71875 981.871094 1260.640625 992.53125 1250.480469 999.878906 C 1246.089844 1003.058594 1242.050781 1005.609375 1241.128906 1006.171875 L 1230.660156 1015.359375 L 1245.558594 1008.53125 C 1252.148438 1005.859375 1256.179688 1003.730469 1260.601562 1001.148438 C 1264.699219 998.75 1270.660156 995.078125 1274.410156 996.121094 C 1285.460938 999.191406 1269.78125 1009.761719 1266.738281 1011.980469 L 1255.828125 1019.480469 L 1247.949219 1024.570312 L 1243.109375 1027.261719 C 1251.601562 1023.710938 1277.320312 1006.640625 1279.128906 1014.828125 C 1280.871094 1022.71875 1269.949219 1026.710938 1263.109375 1030.800781 L 1247.261719 1041.550781 C 1254.761719 1041.269531 1253.988281 1041.078125 1260.53125 1037.378906 C 1266.351562 1033.25 1268.96875 1030.878906 1274.480469 1032.871094 C 1280.128906 1034.910156 1275.691406 1039.679688 1270.558594 1043.648438 C 1267.128906 1046.300781 1263.378906 1048.601562 1262.128906 1049.488281 C 1235.011719 1062.320312 1199.511719 1067.511719 1168.039062 1077.789062 L 1178.730469 1072.078125 L 1165.570312 1041.570312 L 1172.828125 1030.671875 "/>
<path fill-rule="evenodd" fill="rgb(18.041992%, 32.151794%, 51.756287%)" fill-opacity="1" d="M 943.425781 1152.71875 C 958.089844 1213.519531 1150.640625 1099.828125 1203.648438 1073.078125 L 1182.628906 1015.949219 L 1131.800781 1033.589844 L 978.4375 1091.738281 L 943.425781 1152.71875 "/>
<path fill-rule="evenodd" fill="rgb(9.397888%, 20.776367%, 36.863708%)" fill-opacity="1" d="M 1063.261719 1154.988281 L 1187.179688 1082.300781 C 1187.078125 1082.191406 1186.949219 1081.980469 1186.859375 1081.871094 C 1156.761719 1097.871094 1108.960938 1124.191406 1062.378906 1144.351562 C 1062.710938 1147.820312 1063.011719 1151.359375 1063.261719 1154.988281 "/>
<path fill-rule="evenodd" fill="rgb(100%, 43.920898%, 48.631287%)" fill-opacity="1" d="M 1214.640625 421.859375 L 1197.398438 453.589844 L 1165.671875 436.351562 C 1156.941406 431.609375 1153.679688 420.589844 1158.421875 411.871094 C 1163.160156 403.140625 1174.179688 399.878906 1182.910156 404.621094 C 1187.648438 395.890625 1198.660156 392.628906 1207.390625 397.371094 C 1216.121094 402.109375 1219.378906 413.128906 1214.640625 421.859375 "/>
<path fill-rule="evenodd" fill="rgb(100%, 43.920898%, 48.631287%)" fill-opacity="1" d="M 1293.800781 542 L 1247.710938 556.089844 L 1233.609375 510 C 1229.730469 497.320312 1236.929688 483.78125 1249.609375 479.898438 C 1262.28125 476.019531 1275.828125 483.21875 1279.710938 495.898438 C 1292.378906 492.019531 1305.929688 499.21875 1309.800781 511.898438 C 1313.679688 524.570312 1306.480469 538.121094 1293.800781 542 "/>
<path fill-rule="evenodd" fill="rgb(100%, 43.920898%, 48.631287%)" fill-opacity="1" d="M 1282.910156 402.980469 L 1262.390625 415.109375 L 1250.261719 394.589844 C 1246.921875 388.949219 1248.808594 381.601562 1254.449219 378.269531 C 1260.101562 374.929688 1267.441406 376.820312 1270.78125 382.460938 C 1276.421875 379.128906 1283.769531 381.011719 1287.101562 386.660156 C 1290.441406 392.300781 1288.550781 399.648438 1282.910156 402.980469 "/>
<path fill-rule="evenodd" fill="rgb(9.397888%, 20.776367%, 36.863708%)" fill-opacity="1" d="M 1047.089844 1065.710938 L 1130.738281 1033.988281 L 1131.800781 1033.589844 L 1139.429688 1030.941406 C 1138.890625 1030.441406 1138.351562 1029.929688 1137.800781 1029.421875 L 1130.761719 1032.03125 L 1046.429688 1063.230469 C 1046.648438 1064.058594 1046.871094 1064.890625 1047.089844 1065.710938 "/>
</svg>
